{
  "accessors": [
    {
      "bufferView": 3,
      "componentType": 5126,
      "count": 858,
      "max": [
        11.324460983276367,
        61.91080856323242,
        10.152734756469727
      ],
      "min": [
        -11.492443084716797,
        54.69683074951172,
        1.75380277633667
      ],
      "type": "VEC3"
    },
    {
      "bufferView": 3,
      "byteOffset": 10296,
      "componentType": 5126,
      "count": 858,
      "max": [
        0.9950566291809082,
        0.9946354627609253,
        0.9973137378692627
      ],
      "min": [
        -0.9954749941825867,
        -0.9443643689155579,
        -0.9975885152816772
      ],
      "type": "VEC3"
    },
    {
      "bufferView": 4,
      "componentType": 5126,
      "count": 858,
      "max": [
        0.9973584413528442,
        0.9974213242530823,
        0.9931069612503052,
        1.0
      ],
      "min": [
        -0.9996026754379272,
        -0.999437689781189,
        -0.9936326146125793,
        1.0
      ],
      "type": "VEC4"
    },
    {
      "bufferView": 2,
      "componentType": 5126,
      "count": 858,
      "max": [
        0.9981256723403931,
        0.9925135374069214
      ],
      "min": [
        0.0063890814781188965,
        0.00807178020477295
      ],
      "type": "VEC2"
    },
    {
      "bufferView": 1,
      "componentType": 5125,
      "count": 3210,
      "type": "SCALAR"
    },
    {
      "bufferView": 3,
      "byteOffset": 20592,
      "componentType": 5126,
      "count": 1102,
      "max": [
        6.154995918273926,
        92.01604461669922,
        8.531468391418457
      ],
      "min": [
        -6.1269378662109375,
        78.74020385742188,
        -6.0236430168151855
      ],
      "type": "VEC3"
    },
    {
      "bufferView": 3,
      "byteOffset": 33816,
      "componentType": 5126,
      "count": 1102,
      "max": [
        0.9979094862937927,
        0.9997948408126831,
        0.9860617518424988
      ],
      "min": [
        -0.9979094862937927,
        -0.999867856502533,
        -0.9999845027923584
      ],
      "type": "VEC3"
    },
    {
      "bufferView": 4,
      "byteOffset": 13728,
      "componentType": 5126,
      "count": 1102,
      "max": [
        0.9982717037200928,
        0.9944380521774292,
        0.99992835521698,
        1.0
      ],
      "min": [
        -0.9891178011894226,
        -0.9999844431877136,
        -0.9998875856399536,
        -1.0
      ],
      "type": "VEC4"
    },
    {
      "bufferView": 2,
      "byteOffset": 6864,
      "componentType": 5126,
      "count": 1102,
      "max": [
        0.9825340509414673,
        0.9959760904312134
      ],
      "min": [
        0.005129762925207615,
        0.005494698416441679
      ],
      "type": "VEC2"
    },
    {
      "bufferView": 1,
      "byteOffset": 12840,
      "componentType": 5125,
      "count": 5184,
      "type": "SCALAR"
    },
    {
      "bufferView": 3,
      "byteOffset": 47040,
      "componentType": 5126,
      "count": 926,
      "max": [
        5.516363143920898,
        92.18902587890625,
        7.416287422180176
      ],
      "min": [
        -5.453730583190918,
        83.21412658691406,
        -6.176181316375732
      ],
      "type": "VEC3"
    },
    {
      "bufferView": 3,
      "byteOffset": 58152,
      "componentType": 5126,
      "count": 926,
      "max": [
        0.9996688365936279,
        0.9992501735687256,
        0.9965943694114685
      ],
      "min": [
        -0.9996187090873718,
        -0.9968360066413879,
        -0.9997421503067017
      ],
      "type": "VEC3"
    },
    {
      "bufferView": 4,
      "byteOffset": 31360,
      "componentType": 5126,
      "count": 926,
      "max": [
        0.9963127374649048,
        0.9932786226272583,
        0.9992398619651794,
        1.0
      ],
      "min": [
        -0.9988886117935181,
        -0.999853789806366,
        -0.999021053314209,
        -1.0
      ],
      "type": "VEC4"
    },
    {
      "bufferView": 2,
      "byteOffset": 15680,
      "componentType": 5126,
      "count": 926,
      "max": [
        0.9737565517425537,
        0.9872421026229858
      ],
      "min": [
        0.018780231475830078,
        0.013455420732498169
      ],
      "type": "VEC2"
    },
    {
      "bufferView": 1,
      "byteOffset": 33576,
      "componentType": 5125,
      "count": 2511,
      "type": "SCALAR"
    },
    {
      "bufferView": 3,
      "byteOffset": 69264,
      "componentType": 5126,
      "count": 7785,
      "max": [
        7.272398948669434,
        93.21794128417969,
        8.760773658752441
      ],
      "min": [
        -6.785666465759277,
        83.37039184570313,
        -6.1737141609191895
      ],
      "type": "VEC3"
    },
    {
      "bufferView": 3,
      "byteOffset": 162684,
      "componentType": 5126,
      "count": 7785,
      "max": [
        0.9996505975723267,
        0.9986947178840637,
        0.99925297498703
      ],
      "min": [
        -0.9999963045120239,
        -0.9996550679206848,
        -0.9993414282798767
      ],
      "type": "VEC3"
    },
    {
      "bufferView": 4,
      "byteOffset": 46176,
      "componentType": 5126,
      "count": 7785,
      "max": [
        0.9998434782028198,
        0.9997257590293884,
        0.999883234500885,
        1.0
      ],
      "min": [
        -0.9999938607215881,
        -0.9999943375587463,
        -0.9998794198036194,
        -1.0
      ],
      "type": "VEC4"
    },
    {
      "bufferView": 2,
      "byteOffset": 23088,
      "componentType": 5126,
      "count": 7785,
      "max": [
        0.999967098236084,
        1.0
      ],
      "min": [
        0.0,
        0.0
      ],
      "type": "VEC2"
    },
    {
      "bufferView": 1,
      "byteOffset": 43620,
      "componentType": 5125,
      "count": 15396,
      "type": "SCALAR"
    },
    {
      "bufferView": 3,
      "byteOffset": 256104,
      "componentType": 5126,
      "count": 10641,
      "max": [
        33.723812103271484,
        91.11023712158203,
        10.292470932006836
      ],
      "min": [
        -33.748748779296875,
        -2.415508270263672,
        -9.275978088378906
      ],
      "type": "VEC3"
    },
    {
      "bufferView": 3,
      "byteOffset": 383796,
      "componentType": 5126,
      "count": 10641,
      "max": [
        0.9998714327812195,
        0.9992088079452515,
        0.999996542930603
      ],
      "min": [
        -0.9999063611030579,
        -0.9999880790710449,
        -0.9999041557312012
      ],
      "type": "VEC3"
    },
    {
      "bufferView": 4,
      "byteOffset": 170736,
      "componentType": 5126,
      "count": 10641,
      "max": [
        0.9998663663864136,
        0.9999761581420898,
        0.999862015247345,
        1.0
      ],
      "min": [
        -0.9999999403953552,
        -0.9999765157699585,
        -0.9992414712905884,
        -1.0
      ],
      "type": "VEC4"
    },
    {
      "bufferView": 2,
      "byteOffset": 85368,
      "componentType": 5126,
      "count": 10641,
      "max": [
        0.9977186322212219,
        0.9933353662490845
      ],
      "min": [
        0.01441127061843872,
        0.005825996398925781
      ],
      "type": "VEC2"
    },
    {
      "bufferView": 1,
      "byteOffset": 105204,
      "componentType": 5125,
      "count": 54714,
      "type": "SCALAR"
    },
    {
      "bufferView": 5,
      "componentType": 5126,
      "count": 65,
      "max": [
        1.0,
        0.8994713425636292,
        0.9973082542419434,
        0.0,
        0.9647608995437622,
        1.0,
        0.955619215965271,
        0.0,
        0.553458571434021,
        0.9898971319198608,
        1.0,
        0.0,
        69.63143920898438,
        47.96001052856445,
        40.49691390991211,
        1.0
      ],
      "min": [
        -0.9915863871574402,
        -0.8994714617729187,
        -0.9920966625213623,
        0.0,
        -0.8985306024551392,
        -0.9895246028900146,
        -0.5011489391326904,
        0.0,
        -0.490138977766037,
        -0.20714427530765533,
        -0.06292662024497986,
        0.0,
        -69.58075714111328,
        -80.07502746582031,
        -36.46489334106445,
        1.0
      ],
      "type": "MAT4"
    },
    {
      "bufferView": 0,
      "componentType": 5123,
      "count": 858,
      "type": "VEC4"
    },
    {
      "bufferView": 4,
      "byteOffset": 340992,
      "componentType": 5126,
      "count": 858,
      "max": [
        0.723354697227478,
        0.4295291304588318,
        0.18425074219703674,
        0.09507264196872711
      ],
      "min": [
        0.499773234128952,
        0.1414078325033188,
        0.05477805435657501,
        0.0
      ],
      "type": "VEC4"
    },
    {
      "bufferView": 0,
      "byteOffset": 6864,
      "componentType": 5123,
      "count": 1102,
      "type": "VEC4"
    },
    {
      "bufferView": 4,
      "byteOffset": 354720,
      "componentType": 5126,
      "count": 1102,
      "max": [
        1.0,
        0.16166068613529205,
        0.02221754565834999,
        0.0
      ],
      "min": [
        0.8383393287658691,
        0.0,
        0.0,
        0.0
      ],
      "type": "VEC4"
    },
    {
      "bufferView": 0,
      "byteOffset": 15680,
      "componentType": 5123,
      "count": 926,
      "type": "VEC4"
    },
    {
      "bufferView": 4,
      "byteOffset": 372352,
      "componentType": 5126,
      "count": 926,
      "max": [
        1.0,
        0.4540461599826813,
        0.08308170735836029,
        0.04342778027057648
      ],
      "min": [
        0.5459538102149963,
        0.0,
        0.0,
        0.0
      ],
      "type": "VEC4"
    },
    {
      "bufferView": 0,
      "byteOffset": 23088,
      "componentType": 5123,
      "count": 7785,
      "type": "VEC4"
    },
    {
      "bufferView": 4,
      "byteOffset": 387168,
      "componentType": 5126,
      "count": 7785,
      "max": [
        1.0,
        0.43244272470474243,
        0.1039087176322937,
        0.03942820429801941
      ],
      "min": [
        0.5371371507644653,
        0.0,
        0.0,
        0.0
      ],
      "type": "VEC4"
    },
    {
      "bufferView": 0,
      "byteOffset": 85368,
      "componentType": 5123,
      "count": 10641,
      "type": "VEC4"
    },
    {
      "bufferView": 4,
      "byteOffset": 511728,
      "componentType": 5126,
      "count": 10641,
      "max": [
        1.0,
        0.4999249279499054,
        0.32185426354408264,
        0.23217716813087463
      ],
      "min": [
        0.26148903369903564,
        0.0,
        0.0,
        0.0
      ],
      "type": "VEC4"
    }
  ],
  "asset": {
    "extras": {
      "author": "britdawgmasterfunk (https://sketchfab.com/britdawgmasterfunk)",
      "license": "CC-BY-4.0 (http://creativecommons.org/licenses/by/4.0/)",
      "source": "https://sketchfab.com/3d-models/ww2-panzergrenadier-2k-cc0-6a104431bcb8400080b79446ec019696",
      "title": "WW2 Panzergrenadier 2k (CC0)"
    },
    "generator": "Sketchfab-15.55.0",
    "version": "2.0"
  },
  "bufferViews": [
    {
      "buffer": 0,
      "byteLength": 170496,
      "byteStride": 8,
      "name": "shortBufferViews",
      "target": 34962
    },
    {
      "buffer": 0,
      "byteLength": 324060,
      "byteOffset": 170496,
      "name": "floatBufferViews",
      "target": 34963
    },
    {
      "buffer": 0,
      "byteLength": 170496,
      "byteOffset": 494556,
      "byteStride": 8,
      "name": "floatBufferViews",
      "target": 34962
    },
    {
      "buffer": 0,
      "byteLength": 511488,
      "byteOffset": 665052,
      "byteStride": 12,
      "name": "floatBufferViews",
      "target": 34962
    },
    {
      "buffer": 0,
      "byteLength": 681984,
      "byteOffset": 1176540,
      "byteStride": 16,
      "name": "floatBufferViews",
      "target": 34962
    },
    {
      "buffer": 0,
      "byteLength": 4160,
      "byteOffset": 1858524,
      "name": "floatBufferViews"
    }
  ],
  "buffers": [
    {
      "byteLength": 1862684,
      "uri": "scene.bin"
    }
  ],
  "extensionsUsed": [
    "KHR_materials_specular"
  ],
  "images": [
    {
      "uri": "textures/ammopouchesgerman_low_baseColor.png"
    },
    {
      "uri": "textures/ammopouchesgerman_low_metallicRoughness.png"
    },
    {
      "uri": "textures/ammopouchesgerman_low_normal.png"
    },
    {
      "uri": "textures/helmetm42_low_baseColor.png"
    },
    {
      "uri": "textures/helmetm42_low_metallicRoughness.png"
    },
    {
      "uri": "textures/helmetm42_low_normal.png"
    },
    {
      "uri": "textures/scrimwire_low_baseColor.png"
    },
    {
      "uri": "textures/scrimwire_low_metallicRoughness.png"
    },
    {
      "uri": "textures/scrimwire_low_normal.png"
    },
    {
      "uri": "textures/scrimleaves_low_baseColor.png"
    },
    {
      "uri": "textures/scrimleaves_low_metallicRoughness.png"
    },
    {
      "uri": "textures/scrimleaves_low_normal.png"
    },
    {
      "uri": "textures/Material.003_baseColor.png"
    },
    {
      "uri": "textures/Material.003_metallicRoughness.png"
    },
    {
      "uri": "textures/Material.003_normal.png"
    }
  ],
  "materials": [
    {
      "doubleSided": true,
      "extensions": {
        "KHR_materials_specular": {
          "specularColorFactor": [
            1.0,
            1.0,
            1.0
          ],
          "specularFactor": 0.19991562616092734
        }
      },
      "name": "ammopouchesgerman_low",
      "normalTexture": {
        "index": 2
      },
      "occlusionTexture": {
        "index": 1
      },
      "pbrMetallicRoughness": {
        "baseColorTexture": {
          "index": 0
        },
        "metallicRoughnessTexture": {
          "index": 1
        }
      }
    },
    {
      "doubleSided": true,
      "name": "helmetm42_low",
      "normalTexture": {
        "index": 5,
        "scale": 0.9
      },
      "occlusionTexture": {
        "index": 4
      },
      "pbrMetallicRoughness": {
        "baseColorTexture": {
          "index": 3
        },
        "metallicRoughnessTexture": {
          "index": 4
        }
      }
    },
    {
      "doubleSided": true,
      "name": "scrimwire_low",
      "normalTexture": {
        "index": 8
      },
      "pbrMetallicRoughness": {
        "baseColorTexture": {
          "index": 6
        },
        "metallicRoughnessTexture": {
          "index": 7
        }
      }
    },
    {
      "doubleSided": true,
      "name": "scrimleaves_low",
      "normalTexture": {
        "index": 11
      },
      "occlusionTexture": {
        "index": 10
      },
      "pbrMetallicRoughness": {
        "baseColorTexture": {
          "index": 9
        },
        "metallicFactor": 0.0,
        "metallicRoughnessTexture": {
          "index": 10
        }
      }
    },
    {
      "doubleSided": true,
      "name": "Material.003",
      "normalTexture": {
        "index": 14
      },
      "occlusionTexture": {
        "index": 13
      },
      "pbrMetallicRoughness": {
        "baseColorTexture": {
          "index": 12
        },
        "metallicRoughnessTexture": {
          "index": 13
        }
      }
    }
  ],
  "meshes": [
    {
      "name": "Object_0",
      "primitives": [
        {
          "attributes": {
            "JOINTS_0": 26,
            "NORMAL": 1,
            "POSITION": 0,
            "TANGENT": 2,
            "TEXCOORD_0": 3,
            "TEXCOORD_1": 3,
            "TEXCOORD_2": 3,
            "TEXCOORD_3": 3,
            "WEIGHTS_0": 27
          },
          "indices": 4,
          "material": 0,
          "mode": 4
        }
      ]
    },
    {
      "name": "Object_1",
      "primitives": [
        {
          "attributes": {
            "JOINTS_0": 28,
            "NORMAL": 6,
            "POSITION": 5,
            "TANGENT": 7,
            "TEXCOORD_0": 8,
            "TEXCOORD_1": 8,
            "TEXCOORD_2": 8,
            "TEXCOORD_3": 8,
            "WEIGHTS_0": 29
          },
          "indices": 9,
          "material": 1,
          "mode": 4
        }
      ]
    },
    {
      "name": "Object_2",
      "primitives": [
        {
          "attributes": {
            "JOINTS_0": 30,
            "NORMAL": 11,
            "POSITION": 10,
            "TANGENT": 12,
            "TEXCOORD_0": 13,
            "TEXCOORD_1": 13,
            "TEXCOORD_2": 13,
            "TEXCOORD_3": 13,
            "WEIGHTS_0": 31
          },
          "indices": 14,
          "material": 2,
          "mode": 4
        }
      ]
    },
    {
      "name": "Object_3",
      "primitives": [
        {
          "attributes": {
            "JOINTS_0": 32,
            "NORMAL": 16,
            "POSITION": 15,
            "TANGENT": 17,
            "TEXCOORD_0": 18,
            "TEXCOORD_1": 18,
            "TEXCOORD_2": 18,
            "TEXCOORD_3": 18,
            "WEIGHTS_0": 33
          },
          "indices": 19,
          "material": 3,
          "mode": 4
        }
      ]
    },
    {
      "name": "Object_4",
      "primitives": [
        {
          "attributes": {
            "JOINTS_0": 34,
            "NORMAL": 21,
            "POSITION": 20,
            "TANGENT": 22,
            "TEXCOORD_0": 23,
            "TEXCOORD_1": 23,
            "TEXCOORD_2": 23,
            "TEXCOORD_3": 23,
            "WEIGHTS_0": 35
          },
          "indices": 24,
          "material": 4,
          "mode": 4
        }
      ]
    }
  ],
  "nodes": [
    {
      "children": [
        1
      ],
      "matrix": [
        1.0,
        0.0,
        0.0,
        0.0,
        0.0,
        2.220446049250313e-16,
        -1.0,
        0.0,
        0.0,
        1.0,
        2.220446049250313e-16,
        0.0,
        0.0,
        0.0,
        0.0,
        1.0
      ],
      "name": "Sketchfab_model"
    },
    {
      "children": [
        2
      ],
      "name": "root"
    },
    {
      "children": [
        3
      ],
      "matrix": [
        1.0,
        0.0,
        0.0,
        0.0,
        0.0,
        2.220446049250313e-16,
        1.0,
        0.0,
        0.0,
        -1.0,
        2.220446049250313e-16,
        0.0,
        0.0,
        0.0,
        0.0,
        1.0
      ],
      "name": "GLTF_SceneRootNode"
    },
    {
      "children": [
        4
      ],
      "name": "Armature_67"
    },
    {
      "children": [
        5,
        7,
        9,
        10,
        11,
        13,
        6,
        8,
        12
      ],
      "name": "GLTF_created_0"
    },
    {
      "children": [
        14
      ],
      "name": "GLTF_created_0_rootJoint"
    },
    {
      "name": "ammopouches_64"
    },
    {
      "mesh": 0,
      "name": "Object_7",
      "skin": 0
    },
    {
      "name": "helmet_65"
    },
    {
      "mesh": 1,
      "name": "Object_9",
      "skin": 0
    },
    {
      "mesh": 2,
      "name": "Object_10",
      "skin": 0
    },
    {
      "mesh": 3,
      "name": "Object_11",
      "skin": 0
    },
    {
      "name": "main_66"
    },
    {
      "mesh": 4,
      "name": "Object_13",
      "skin": 0
    },
    {
      "children": [
        15,
        68,
        73
      ],
      "name": "mixamorig:Hips_63",
      "translation": [
        0.04546836018562317,
        51.59514236450195,
        1.7653534412384033
      ]
    },
    {
      "children": [
        16
      ],
      "name": "mixamorig:Spine_52",
      "rotation": [
        -0.06512272357940674,
        0.0,
        0.0,
        0.9978772401809692
      ],
      "translation": [
        0.0,
        4.7973175048828125,
        -0.6288406848907471
      ]
    },
    {
      "children": [
        17
      ],
      "name": "mixamorig:Spine1_51",
      "rotation": [
        -6.258487701416016e-07,
        0.0,
        0.0,
        1.0
      ],
      "translation": [
        3.725290298461914e-09,
        5.6447367668151855,
        3.5762786865234375e-07
      ]
    },
    {
      "children": [
        18,
        20,
        44
      ],
      "name": "mixamorig:Spine2_50",
      "rotation": [
        -7.450580596923828e-08,
        1.1920930376163597e-07,
        -8.881784197001252e-15,
        1.0
      ],
      "translation": [
        3.725290298461914e-09,
        6.451136112213135,
        2.7120113372802734e-06
      ]
    },
    {
      "children": [
        19
      ],
      "name": "mixamorig:Neck_1",
      "rotation": [
        0.06512342393398285,
        -1.1895625107172236e-07,
        7.763317988462859e-09,
        0.9978772401809692
      ],
      "translation": [
        -7.416076641675318e-10,
        7.257539749145508,
        7.260962320287945e-07
      ]
    },
    {
      "name": "mixamorig:Head_0",
      "rotation": [
        5.411307846259206e-09,
        1.1920928955078125e-07,
        6.450781638931281e-16,
        1.0
      ],
      "translation": [
        0.0,
        4.493316650390625,
        1.7769736051559448
      ]
    },
    {
      "children": [
        21
      ],
      "name": "mixamorig:LeftShoulder_25",
      "rotation": [
        0.011182978749275208,
        0.04515545070171356,
        -0.846149206161499,
        0.5309119820594788
      ],
      "translation": [
        3.29247784614563,
        7.473889350891113,
        2.8600537916645408e-05
      ]
    },
    {
      "children": [
        22
      ],
      "name": "mixamorig:LeftArm_24",
      "rotation": [
        -0.06456887722015381,
        0.13812848925590515,
        -0.20769482851028442,
        0.9662371873855591
      ],
      "translation": [
        -4.784764769283356e-06,
        7.182005405426025,
        -2.1464879864652175e-06
      ]
    },
    {
      "children": [
        23
      ],
      "name": "mixamorig:LeftForeArm_23",
      "rotation": [
        0.3047631084918976,
        -0.26617932319641113,
        0.1066189780831337,
        0.9082403182983398
      ],
      "scale": [
        0.9999998211860657,
        1.0,
        1.0
      ],
      "translation": [
        8.437586075160652e-06,
        13.725713729858398,
        4.096551037946483e-06
      ]
    },
    {
      "children": [
        24,
        28,
        32,
        36,
        40
      ],
      "name": "mixamorig:LeftHand_22",
      "rotation": [
        -0.024350004270672798,
        0.16832606494426727,
        -0.09003016352653503,
        0.9813093543052673
      ],
      "scale": [
        0.9999998807907104,
        0.9999998807907104,
        1.0
      ],
      "translation": [
        1.081704340322176e-05,
        11.979171752929688,
        1.3150709037290653e-06
      ]
    },
    {
      "children": [
        25
      ],
      "name": "mixamorig:LeftHandThumb1_5",
      "rotation": [
        0.19269521534442902,
        0.13615578413009644,
        0.06059245020151138,
        0.9698756337165833
      ],
      "scale": [
        1.0000001192092896,
        1.0,
        1.0
      ],
      "translation": [
        0.06361713260412216,
        0.11627601087093353,
        1.4244890213012695
      ]
    },
    {
      "children": [
        26
      ],
      "name": "mixamorig:LeftHandThumb2_4",
      "rotation": [
        0.2349984347820282,
        0.23730705678462982,
        -0.07886669039726257,
        0.939276933670044
      ],
      "translation": [
        0.07186388969421387,
        1.9481470584869385,
        -0.02921748161315918
      ]
    },
    {
      "children": [
        27
      ],
      "name": "mixamorig:LeftHandThumb3_3",
      "rotation": [
        -0.04205086827278137,
        -0.0710478276014328,
        0.04913504794239998,
        0.9953741431236267
      ],
      "scale": [
        1.0000001192092896,
        1.0000001192092896,
        1.0000001192092896
      ],
      "translation": [
        0.008758457377552986,
        1.7357219457626343,
        -0.05701085552573204
      ]
    },
    {
      "name": "mixamorig:LeftHandThumb4_2",
      "rotation": [
        -0.022194702178239822,
        -0.0003399508714210242,
        -0.03873375058174133,
        0.999002993106842
      ],
      "translation": [
        -0.00014724991342518479,
        1.3518062829971313,
        -0.004929460119456053
      ]
    },
    {
      "children": [
        29
      ],
      "name": "mixamorig:LeftHandIndex1_9",
      "rotation": [
        0.19254104793071747,
        0.09784014523029327,
        0.0032344546634703875,
        0.9763938784599304
      ],
      "scale": [
        0.9999998211860657,
        1.0,
        0.9999998211860657
      ],
      "translation": [
        -0.5552356243133545,
        4.6666059494018555,
        1.6360758543014526
      ]
    },
    {
      "children": [
        30
      ],
      "name": "mixamorig:LeftHandIndex2_8",
      "rotation": [
        0.06699912250041962,
        0.1141764372587204,
        -0.011014942079782486,
        0.9911375045776367
      ],
      "scale": [
        1.0000001192092896,
        1.0,
        1.0
      ],
      "translation": [
        0.001400353037752211,
        1.3116403818130493,
        -0.002955661853775382
      ]
    },
    {
      "children": [
        31
      ],
      "name": "mixamorig:LeftHandIndex3_7",
      "rotation": [
        -0.11003001779317856,
        -0.06826431304216385,
        -0.13805557787418365,
        0.9819236397743225
      ],
      "scale": [
        1.0,
        0.9999999403953552,
        0.9999998211860657
      ],
      "translation": [
        -0.0022655045613646507,
        1.3453508615493774,
        0.0028126027900725603
      ]
    },
    {
      "name": "mixamorig:LeftHandIndex4_6",
      "rotation": [
        0.06566758453845978,
        0.002510813996195793,
        0.09901708364486694,
        0.9929134249687195
      ],
      "scale": [
        0.9999998807907104,
        1.0,
        1.0
      ],
      "translation": [
        0.00019171216990798712,
        1.124267816543579,
        -0.00029197975527495146
      ]
    },
    {
      "children": [
        33
      ],
      "name": "mixamorig:LeftHandMiddle1_13",
      "rotation": [
        0.0487457811832428,
        -0.013436048291623592,
        0.011670752428472042,
        0.9986526370048523
      ],
      "scale": [
        1.0,
        1.0,
        0.9999998807907104
      ],
      "translation": [
        -0.15327613055706024,
        5.307458877563477,
        0.6741740703582764
      ]
    },
    {
      "children": [
        34
      ],
      "name": "mixamorig:LeftHandMiddle2_12",
      "rotation": [
        0.07679800689220428,
        0.1430371254682541,
        -0.07487335801124573,
        0.9838884472846985
      ],
      "scale": [
        1.0,
        1.0000001192092896,
        1.0
      ],
      "translation": [
        -0.0010282965376973152,
        1.312921404838562,
        0.004108445253223181
      ]
    },
    {
      "children": [
        35
      ],
      "name": "mixamorig:LeftHandMiddle3_11",
      "rotation": [
        -0.04818878322839737,
        -0.025162341073155403,
        -0.07789608836174011,
        0.9954782128334045
      ],
      "scale": [
        1.000000238418579,
        1.000000238418579,
        1.0
      ],
      "translation": [
        0.0013998800422996283,
        1.1696763038635254,
        -0.002284651156514883
      ]
    },
    {
      "name": "mixamorig:LeftHandMiddle4_10",
      "rotation": [
        0.0193442665040493,
        -1.2750022051477572e-06,
        0.045582592487335205,
        0.9987732768058777
      ],
      "scale": [
        1.0000001192092896,
        1.0,
        0.9999999403953552
      ],
      "translation": [
        0.0007424158393405378,
        1.2656307220458984,
        -0.0013587391003966331
      ]
    },
    {
      "children": [
        37
      ],
      "name": "mixamorig:LeftHandRing1_17",
      "rotation": [
        -0.029375774785876274,
        0.03778579458594322,
        -0.0669037401676178,
        0.9966108798980713
      ],
      "scale": [
        1.0000001192092896,
        0.9999999403953552,
        0.9999999403953552
      ],
      "translation": [
        -0.08369584381580353,
        5.336521148681641,
        -0.4382391571998596
      ]
    },
    {
      "children": [
        38
      ],
      "name": "mixamorig:LeftHandRing2_16",
      "rotation": [
        0.044996876269578934,
        0.09613792598247528,
        -0.031071176752448082,
        0.993864893913269
      ],
      "scale": [
        0.9999999403953552,
        1.0000001192092896,
        1.0
      ],
      "translation": [
        -0.000937033852096647,
        1.2100939750671387,
        0.00246706185862422
      ]
    },
    {
      "children": [
        39
      ],
      "name": "mixamorig:LeftHandRing3_15",
      "rotation": [
        -0.06288645416498184,
        -0.1299406886100769,
        0.012775777839124203,
        0.9894430637359619
      ],
      "scale": [
        1.0,
        1.0000001192092896,
        1.0000001192092896
      ],
      "translation": [
        0.0044111269526183605,
        1.0577425956726074,
        -0.007104664575308561
      ]
    },
    {
      "name": "mixamorig:LeftHandRing4_14",
      "rotation": [
        0.08356848359107971,
        0.005005714017897844,
        -0.09285765886306763,
        0.9921535849571228
      ],
      "scale": [
        1.0,
        1.0000001192092896,
        0.9999999403953552
      ],
      "translation": [
        -0.0016878573223948479,
        1.1033765077590942,
        0.0054755317978560925
      ]
    },
    {
      "children": [
        41
      ],
      "name": "mixamorig:LeftHandPinky1_21",
      "rotation": [
        -0.04662958160042763,
        0.13802775740623474,
        -0.1687987893819809,
        0.9748235940933228
      ],
      "scale": [
        1.0,
        1.0000001192092896,
        0.9999999403953552
      ],
      "translation": [
        0.4445401430130005,
        5.27788782119751,
        -1.2527729272842407
      ]
    },
    {
      "children": [
        42
      ],
      "name": "mixamorig:LeftHandPinky2_20",
      "rotation": [
        0.017602164298295975,
        0.04353097081184387,
        -0.02360183373093605,
        0.9986181259155273
      ],
      "scale": [
        1.0,
        1.0000003576278687,
        1.0
      ],
      "translation": [
        0.0008548566838726401,
        0.9060079455375671,
        -0.0012830424821004272
      ]
    },
    {
      "children": [
        43
      ],
      "name": "mixamorig:LeftHandPinky3_19",
      "rotation": [
        -0.02608715370297432,
        -0.06516550481319427,
        0.03660474345088005,
        0.9968615770339966
      ],
      "scale": [
        1.0000001192092896,
        1.0000001192092896,
        1.0
      ],
      "translation": [
        0.0012688140850514174,
        0.7694223523139954,
        -0.0015718077775090933
      ]
    },
    {
      "name": "mixamorig:LeftHandPinky4_18",
      "rotation": [
        2.7529895305633545e-06,
        -4.023313522338867e-07,
        -4.805624485015869e-06,
        1.0
      ],
      "scale": [
        1.0,
        1.0000001192092896,
        1.0000001192092896
      ],
      "translation": [
        -0.0018842816352844238,
        0.6134017705917358,
        0.003031015396118164
      ]
    },
    {
      "children": [
        45
      ],
      "name": "mixamorig:RightShoulder_49",
      "rotation": [
        0.018399612978100777,
        -0.040480904281139374,
        0.8466236591339111,
        0.5303312540054321
      ],
      "scale": [
        1.000000238418579,
        1.0,
        1.0
      ],
      "translation": [
        -3.2924656867980957,
        7.466574668884277,
        0.05574146658182144
      ]
    },
    {
      "children": [
        46
      ],
      "name": "mixamorig:RightArm_48",
      "rotation": [
        -0.04737755283713341,
        -0.32740411162376404,
        0.21899189054965973,
        0.9179348945617676
      ],
      "translation": [
        7.105051281541819e-06,
        7.182011127471924,
        1.5669547792640515e-06
      ]
    },
    {
      "children": [
        47
      ],
      "name": "mixamorig:RightForeArm_47",
      "rotation": [
        0.3116984963417053,
        0.4991568624973297,
        -0.1293831765651703,
        0.7980892658233643
      ],
      "scale": [
        1.0,
        1.0000001192092896,
        1.0
      ],
      "translation": [
        3.0319536108436296e-06,
        13.603745460510254,
        5.021610149924527e-07
      ]
    },
    {
      "children": [
        48,
        52,
        56,
        60,
        64
      ],
      "name": "mixamorig:RightHand_46",
      "rotation": [
        0.048559825867414474,
        -0.2189023643732071,
        -0.044315896928310394,
        0.973529577255249
      ],
      "scale": [
        1.0,
        1.0000001192092896,
        1.0
      ],
      "translation": [
        -6.490358828159515e-06,
        11.778097152709961,
        3.013054765688139e-06
      ]
    },
    {
      "children": [
        49
      ],
      "name": "mixamorig:RightHandThumb1_29",
      "rotation": [
        0.15669618546962738,
        -0.19070424139499664,
        -0.04712258651852608,
        0.9679141044616699
      ],
      "scale": [
        1.0,
        1.0000001192092896,
        0.9999999403953552
      ],
      "translation": [
        -0.2935977578163147,
        0.5136097073554993,
        0.9401018023490906
      ]
    },
    {
      "children": [
        50
      ],
      "name": "mixamorig:RightHandThumb2_28",
      "rotation": [
        0.3051801919937134,
        -0.18558330833911896,
        0.08175687491893768,
        0.9304513335227966
      ],
      "scale": [
        1.0000001192092896,
        1.0000001192092896,
        1.0000001192092896
      ],
      "translation": [
        0.01086075697094202,
        1.9618709087371826,
        -0.04246307164430618
      ]
    },
    {
      "children": [
        51
      ],
      "name": "mixamorig:RightHandThumb3_27",
      "rotation": [
        -0.02766580879688263,
        0.04855118691921234,
        0.03993527218699455,
        0.9976385235786438
      ],
      "scale": [
        1.0000001192092896,
        1.0000001192092896,
        1.0
      ],
      "translation": [
        0.0018304965924471617,
        1.8045271635055542,
        0.054704271256923676
      ]
    },
    {
      "name": "mixamorig:RightHandThumb4_26",
      "rotation": [
        0.046377893537282944,
        0.0018665259703993797,
        0.020113851875066757,
        0.9987196922302246
      ],
      "scale": [
        0.9999998211860657,
        0.9999999403953552,
        0.9999998807907104
      ],
      "translation": [
        0.003010789630934596,
        1.6385115385055542,
        0.00189476297236979
      ]
    },
    {
      "children": [
        53
      ],
      "name": "mixamorig:RightHandIndex1_33",
      "rotation": [
        0.11172027885913849,
        -0.06435427814722061,
        0.12902617454528809,
        0.9832239747047424
      ],
      "scale": [
        0.9999999403953552,
        0.9999999403953552,
        1.0
      ],
      "translation": [
        -0.14855706691741943,
        4.786567687988281,
        0.9134626388549805
      ]
    },
    {
      "children": [
        54
      ],
      "name": "mixamorig:RightHandIndex2_32",
      "rotation": [
        0.06330616772174835,
        -0.15424703061580658,
        0.10015629231929779,
        0.9809020757675171
      ],
      "scale": [
        0.9999998807907104,
        1.0,
        0.9999998807907104
      ],
      "translation": [
        -0.0019815636333078146,
        1.3299143314361572,
        -0.004599945154041052
      ]
    },
    {
      "children": [
        55
      ],
      "name": "mixamorig:RightHandIndex3_31",
      "rotation": [
        -0.03433067724108696,
        0.08187892287969589,
        -0.04634997248649597,
        0.9949719309806824
      ],
      "scale": [
        1.0,
        0.9999998807907104,
        0.9999999403953552
      ],
      "translation": [
        0.003690403886139393,
        1.2491772174835205,
        0.0042069400660693645
      ]
    },
    {
      "name": "mixamorig:RightHandIndex4_30",
      "rotation": [
        2.641230821609497e-06,
        -1.1920930376163597e-07,
        2.3245811462402344e-06,
        1.0
      ],
      "scale": [
        1.0,
        1.0000001192092896,
        0.9999999403953552
      ],
      "translation": [
        -0.0003058910369873047,
        1.0847973823547363,
        -0.0005288124084472656
      ]
    },
    {
      "children": [
        57
      ],
      "name": "mixamorig:RightHandMiddle1_37",
      "rotation": [
        -0.028933800756931305,
        -0.014991958625614643,
        0.13672946393489838,
        0.9900723099708557
      ],
      "scale": [
        0.9999998211860657,
        0.9999998211860657,
        0.9999998807907104
      ],
      "translation": [
        -0.7062900066375732,
        5.136092185974121,
        0.1887071430683136
      ]
    },
    {
      "children": [
        58
      ],
      "name": "mixamorig:RightHandMiddle2_36",
      "rotation": [
        0.0454559326171875,
        -0.13170400261878967,
        0.10241915285587311,
        0.9849356412887573
      ],
      "scale": [
        1.0,
        0.9999999403953552,
        1.0
      ],
      "translation": [
        0.00011113848449895158,
        1.3565646409988403,
        0.00032708351500332355
      ]
    },
    {
      "children": [
        59
      ],
      "name": "mixamorig:RightHandMiddle3_35",
      "rotation": [
        0.008114057593047619,
        -0.021237080916762352,
        0.012604448944330215,
        0.9996621012687683
      ],
      "scale": [
        1.0,
        0.9999999403953552,
        0.9999999403953552
      ],
      "translation": [
        -7.106423436198384e-05,
        1.2846802473068237,
        -0.00010339848813600838
      ]
    },
    {
      "name": "mixamorig:RightHandMiddle4_34",
      "rotation": [
        -1.1920930376163597e-07,
        3.2801183351693908e-06,
        9.350479217573593e-07,
        1.0
      ],
      "translation": [
        -0.00012230873107910156,
        1.150209665298462,
        -0.00017786028911359608
      ]
    },
    {
      "children": [
        61
      ],
      "name": "mixamorig:RightHandRing1_41",
      "rotation": [
        -0.1029665544629097,
        -0.0492963008582592,
        0.19381721317768097,
        0.9743729829788208
      ],
      "scale": [
        0.9999999403953552,
        0.9999998807907104,
        0.9999998211860657
      ],
      "translation": [
        -0.7444218993186951,
        5.0594162940979,
        -0.898941695690155
      ]
    },
    {
      "children": [
        62
      ],
      "name": "mixamorig:RightHandRing2_40",
      "rotation": [
        0.026079274713993073,
        -0.07532086223363876,
        0.05766000226140022,
        0.9951492547988892
      ],
      "scale": [
        0.9999998807907104,
        0.9999998807907104,
        0.9999998807907104
      ],
      "translation": [
        0.001177434460259974,
        1.1807677745819092,
        0.0032198037952184677
      ]
    },
    {
      "children": [
        63
      ],
      "name": "mixamorig:RightHandRing3_39",
      "rotation": [
        0.002599645173177123,
        -0.0070701343938708305,
        0.004679382778704166,
        0.9999606609344482
      ],
      "scale": [
        1.0000001192092896,
        1.0000001192092896,
        1.0
      ],
      "translation": [
        -0.0008085859590210021,
        1.2376335859298706,
        -0.0014743362553417683
      ]
    },
    {
      "name": "mixamorig:RightHandRing4_38",
      "rotation": [
        4.842877388000488e-06,
        1.730397343635559e-06,
        8.376315236091614e-06,
        1.0
      ],
      "scale": [
        1.0,
        0.9999998807907104,
        1.0000001192092896
      ],
      "translation": [
        -0.0008573531522415578,
        1.04477059841156,
        -0.0015132427215576172
      ]
    },
    {
      "children": [
        65
      ],
      "name": "mixamorig:RightHandPinky1_45",
      "rotation": [
        -0.09422194212675095,
        -0.1480019986629486,
        0.2987387180328369,
        0.938068687915802
      ],
      "scale": [
        1.0,
        0.9999998211860657,
        0.9999999403953552
      ],
      "translation": [
        -1.3067090511322021,
        4.7350029945373535,
        -1.7167574167251587
      ]
    },
    {
      "children": [
        66
      ],
      "name": "mixamorig:RightHandPinky2_44",
      "rotation": [
        0.031628768891096115,
        -0.07784244418144226,
        0.040093451738357544,
        0.9956570267677307
      ],
      "scale": [
        0.9999999403953552,
        0.9999999403953552,
        1.0
      ],
      "translation": [
        -0.00022283534053713083,
        0.948458194732666,
        -0.0003772704803850502
      ]
    },
    {
      "children": [
        67
      ],
      "name": "mixamorig:RightHandPinky3_43",
      "rotation": [
        -0.015457350760698318,
        0.037412162870168686,
        -0.018040966242551804,
        0.9990174770355225
      ],
      "scale": [
        1.0000001192092896,
        1.0,
        1.0
      ],
      "translation": [
        -0.0012148480163887143,
        0.8513551950454712,
        -0.0013031698763370514
      ]
    },
    {
      "name": "mixamorig:RightHandPinky4_42",
      "rotation": [
        -9.196812129630416e-07,
        3.005494363605976e-06,
        -2.2985043415246764e-06,
        1.0
      ],
      "scale": [
        0.9999998807907104,
        0.9999998211860657,
        1.0
      ],
      "translation": [
        0.0013848543167114258,
        0.6999307870864868,
        0.0017365217208862305
      ]
    },
    {
      "children": [
        69
      ],
      "name": "mixamorig:LeftUpLeg_57",
      "rotation": [
        -0.0632099062204361,
        0.03893331065773964,
        -0.9952377080917358,
        0.06317229568958282
      ],
      "scale": [
        1.0000015497207642,
        1.0000001192092896,
        1.0000007152557373
      ],
      "translation": [
        5.443436622619629,
        -2.61529541015625,
        -0.42852017283439636
      ]
    },
    {
      "children": [
        70
      ],
      "name": "mixamorig:LeftLeg_56",
      "rotation": [
        -0.042391587048769,
        0.0072395396418869495,
        -0.03559008985757828,
        0.9984407424926758
      ],
      "scale": [
        0.9999999403953552,
        0.9999999403953552,
        0.9999999403953552
      ],
      "translation": [
        9.235354809788987e-07,
        20.71208953857422,
        -7.999568651939626e-07
      ]
    },
    {
      "children": [
        71
      ],
      "name": "mixamorig:LeftFoot_55",
      "rotation": [
        0.5407052636146545,
        -0.049936193972826004,
        -0.09142595529556274,
        0.8347367644309998
      ],
      "scale": [
        1.0,
        0.9999998211860657,
        0.9999998211860657
      ],
      "translation": [
        -4.3338866362319095e-07,
        24.375988006591797,
        2.002028764991337e-07
      ]
    },
    {
      "children": [
        72
      ],
      "name": "mixamorig:LeftToeBase_54",
      "rotation": [
        0.2952617406845093,
        -0.07349757850170135,
        -0.019650708884000778,
        0.9523826241493225
      ],
      "scale": [
        1.0,
        0.9999998807907104,
        0.9999998211860657
      ],
      "translation": [
        7.040798664093018e-06,
        8.610563278198242,
        -9.834766387939453e-07
      ]
    },
    {
      "name": "mixamorig:LeftToe_End_53",
      "rotation": [
        2.7962960302829742e-06,
        3.6787259460879795e-08,
        -1.6166595742106438e-06,
        1.0
      ],
      "scale": [
        1.0000001192092896,
        0.9999999403953552,
        0.9999999403953552
      ],
      "translation": [
        -1.970678795260028e-06,
        3.6396806240081787,
        -3.725270047993945e-08
      ]
    },
    {
      "children": [
        74
      ],
      "name": "mixamorig:RightUpLeg_62",
      "rotation": [
        -0.06333155930042267,
        -0.038718532770872116,
        0.9953650236129761,
        0.06114396080374718
      ],
      "scale": [
        0.9999954700469971,
        0.9999999403953552,
        0.9999974966049194
      ],
      "translation": [
        -5.4434332847595215,
        -2.6152918338775635,
        -0.3055826425552368
      ]
    },
    {
      "children": [
        75
      ],
      "name": "mixamorig:RightLeg_61",
      "rotation": [
        -0.03876673802733421,
        -0.00752000929787755,
        0.022821778431534767,
        0.9989593625068665
      ],
      "scale": [
        1.0000001192092896,
        1.0,
        1.0
      ],
      "translation": [
        -1.9032532918572542e-06,
        20.70084571838379,
        1.3551111521792336e-07
      ]
    },
    {
      "children": [
        76
      ],
      "name": "mixamorig:RightFoot_60",
      "rotation": [
        0.5306083559989929,
        0.05757804587483406,
        0.09650176763534546,
        0.8401350975036621
      ],
      "scale": [
        0.9999998807907104,
        1.0000001192092896,
        0.9999998807907104
      ],
      "translation": [
        -1.0152913887395698e-07,
        24.30005645751953,
        2.2179580128067755e-07
      ]
    },
    {
      "children": [
        77
      ],
      "name": "mixamorig:RightToeBase_59",
      "rotation": [
        0.3017776906490326,
        0.07322958111763,
        0.024755103513598442,
        0.9502394199371338
      ],
      "scale": [
        1.0000001192092896,
        1.0000001192092896,
        1.000000238418579
      ],
      "translation": [
        -1.3400347143033287e-06,
        8.550326347351074,
        -2.474163238730398e-07
      ]
    },
    {
      "name": "mixamorig:RightToe_End_58",
      "rotation": [
        -5.834735929965973e-07,
        1.748558275949108e-07,
        8.451752364635468e-08,
        1.0
      ],
      "scale": [
        0.9999999403953552,
        1.0000001192092896,
        1.0
      ],
      "translation": [
        -1.5012919902801514e-06,
        3.6783783435821533,
        2.3096833956515184e-07
      ]
    }
  ],
  "samplers": [
    {
      "magFilter": 9729,
      "minFilter": 9987,
      "wrapS": 10497,
      "wrapT": 10497
    }
  ],
  "scene": 0,
  "scenes": [
    {
      "name": "Sketchfab_Scene",
      "nodes": [
        0
      ]
    }
  ],
  "skins": [
    {
      "inverseBindMatrices": 25,
      "joints": [
        5,
        14,
        15,
        16,
        17,
        18,
        19,
        20,
        21,
        22,
        23,
        24,
        25,
        26,
        27,
        28,
        29,
        30,
        31,
        32,
        33,
        34,
        35,
        36,
        37,
        38,
        39,
        40,
        41,
        42,
        43,
        44,
        45,
        46,
        47,
        48,
        49,
        50,
        51,
        52,
        53,
        54,
        55,
        56,
        57,
        58,
        59,
        60,
        61,
        62,
        63,
        64,
        65,
        66,
        67,
        68,
        69,
        70,
        71,
        72,
        73,
        74,
        75,
        76,
        77
      ],
      "skeleton": 5
    }
  ],
  "textures": [
    {
      "sampler": 0,
      "source": 0
    },
    {
      "sampler": 0,
      "source": 1
    },
    {
      "sampler": 0,
      "source": 2
    },
    {
      "sampler": 0,
      "source": 3
    },
    {
      "sampler": 0,
      "source": 4
    },
    {
      "sampler": 0,
      "source": 5
    },
    {
      "sampler": 0,
      "source": 6
    },
    {
      "sampler": 0,
      "source": 7
    },
    {
      "sampler": 0,
      "source": 8
    },
    {
      "sampler": 0,
      "source": 9
    },
    {
      "sampler": 0,
      "source": 10
    },
    {
      "sampler": 0,
      "source": 11
    },
    {
      "sampler": 0,
      "source": 12
    },
    {
      "sampler": 0,
      "source": 13
    },
    {
      "sampler": 0,
      "source": 14
    }
  ]
}
