{
  "accessors": [
    {
      "bufferView": 2,
      "componentType": 5126,
      "count": 1412,
      "max": [
        0.08683118224143982,
        0.15470591187477112,
        0.5033755302429199
      ],
      "min": [
        -0.08683134615421295,
        -0.1381135880947113,
        -1.4478679895401
      ],
      "type": "VEC3"
    },
    {
      "bufferView": 2,
      "byteOffset": 16944,
      "componentType": 5126,
      "count": 1412,
      "max": [
        1.0,
        1.0,
        1.0
      ],
      "min": [
        -1.0,
        -1.0,
        -1.0
      ],
      "type": "VEC3"
    },
    {
      "bufferView": 3,
      "componentType": 5126,
      "count": 1412,
      "max": [
        1.0,
        1.0,
        1.0,
        1.0
      ],
      "min": [
        -1.0,
        -1.0,
        -1.0,
        1.0
      ],
      "type": "VEC4"
    },
    {
      "bufferView": 1,
      "componentType": 5126,
      "count": 1412,
      "max": [
        0.9932512640953064,
        0.9869377613067627
      ],
      "min": [
        0.0014945782022550702,
        0.0014936208026483655
      ],
      "type": "VEC2"
    },
    {
      "bufferView": 1,
      "byteOffset": 11296,
      "componentType": 5126,
      "count": 1412,
      "max": [
        0.9932512640953064,
        0.9869377613067627
      ],
      "min": [
        0.0014945782022550702,
        0.0014936208026483655
      ],
      "type": "VEC2"
    },
    {
      "bufferView": 1,
      "byteOffset": 22592,
      "componentType": 5126,
      "count": 1412,
      "max": [
        0.9932512640953064,
        0.9869377613067627
      ],
      "min": [
        0.0014945782022550702,
        0.0014936208026483655
      ],
      "type": "VEC2"
    },
    {
      "bufferView": 0,
      "componentType": 5125,
      "count": 4440,
      "type": "SCALAR"
    },
    {
      "bufferView": 2,
      "byteOffset": 33888,
      "componentType": 5126,
      "count": 8397,
      "max": [
        0.31584978103637695,
        0.27349454164505005,
        0.2760949432849884
      ],
      "min": [
        -0.20635570585727692,
        -4.392515659332275,
        -1.270687460899353
      ],
      "type": "VEC3"
    },
    {
      "bufferView": 2,
      "byteOffset": 134652,
      "componentType": 5126,
      "count": 8397,
      "max": [
        1.0,
        1.0,
        1.0
      ],
      "min": [
        -1.0,
        -1.0,
        -1.0
      ],
      "type": "VEC3"
    },
    {
      "bufferView": 3,
      "byteOffset": 22592,
      "componentType": 5126,
      "count": 8397,
      "max": [
        1.0,
        1.0,
        1.0,
        1.0
      ],
      "min": [
        -1.0,
        -1.0,
        -1.0,
        -1.0
      ],
      "type": "VEC4"
    },
    {
      "bufferView": 1,
      "byteOffset": 33888,
      "componentType": 5126,
      "count": 8397,
      "max": [
        0.9985045194625854,
        0.9966129064559937
      ],
      "min": [
        0.0014915296342223883,
        0.001492082723416388
      ],
      "type": "VEC2"
    },
    {
      "bufferView": 1,
      "byteOffset": 101064,
      "componentType": 5126,
      "count": 8397,
      "max": [
        0.9985045194625854,
        0.9966129064559937
      ],
      "min": [
        0.0014915296342223883,
        0.001492082723416388
      ],
      "type": "VEC2"
    },
    {
      "bufferView": 1,
      "byteOffset": 168240,
      "componentType": 5126,
      "count": 8397,
      "max": [
        0.9985045194625854,
        0.9966129064559937
      ],
      "min": [
        0.0014915296342223883,
        0.001492082723416388
      ],
      "type": "VEC2"
    },
    {
      "bufferView": 0,
      "byteOffset": 17760,
      "componentType": 5125,
      "count": 29142,
      "type": "SCALAR"
    },
    {
      "bufferView": 2,
      "byteOffset": 235416,
      "componentType": 5126,
      "count": 720,
      "max": [
        0.1926654428243637,
        0.1288551390171051,
        1.7256220579147339
      ],
      "min": [
        -0.1926654428243637,
        -0.12885506451129913,
        -0.12885510921478271
      ],
      "type": "VEC3"
    },
    {
      "bufferView": 2,
      "byteOffset": 244056,
      "componentType": 5126,
      "count": 720,
      "max": [
        1.0,
        1.0,
        1.0
      ],
      "min": [
        -1.0,
        -1.0,
        -1.0
      ],
      "type": "VEC3"
    },
    {
      "bufferView": 3,
      "byteOffset": 156944,
      "componentType": 5126,
      "count": 720,
      "max": [
        1.0,
        1.0,
        1.0,
        1.0
      ],
      "min": [
        -1.0,
        -1.0,
        -1.0,
        1.0
      ],
      "type": "VEC4"
    },
    {
      "bufferView": 1,
      "byteOffset": 235416,
      "componentType": 5126,
      "count": 720,
      "max": [
        0.9916505217552185,
        0.9908755421638489
      ],
      "min": [
        0.0014999043196439743,
        0.001496860757470131
      ],
      "type": "VEC2"
    },
    {
      "bufferView": 1,
      "byteOffset": 241176,
      "componentType": 5126,
      "count": 720,
      "max": [
        0.9916505217552185,
        0.9908755421638489
      ],
      "min": [
        0.0014999043196439743,
        0.001496860757470131
      ],
      "type": "VEC2"
    },
    {
      "bufferView": 1,
      "byteOffset": 246936,
      "componentType": 5126,
      "count": 720,
      "max": [
        0.9916505217552185,
        0.9908755421638489
      ],
      "min": [
        0.0014999043196439743,
        0.001496860757470131
      ],
      "type": "VEC2"
    },
    {
      "bufferView": 0,
      "byteOffset": 134328,
      "componentType": 5125,
      "count": 2412,
      "type": "SCALAR"
    },
    {
      "bufferView": 2,
      "byteOffset": 252696,
      "componentType": 5126,
      "count": 132,
      "max": [
        0.04277659207582474,
        0.08988742530345917,
        -2.2351741790771484e-08
      ],
      "min": [
        -0.04277659207582474,
        -0.041619352996349335,
        -0.26410001516342163
      ],
      "type": "VEC3"
    },
    {
      "bufferView": 2,
      "byteOffset": 254280,
      "componentType": 5126,
      "count": 132,
      "max": [
        0.9993329048156738,
        0.9994391202926636,
        0.5765679478645325
      ],
      "min": [
        -0.9993329048156738,
        -0.9705154895782471,
        -1.0
      ],
      "type": "VEC3"
    },
    {
      "bufferView": 3,
      "byteOffset": 168464,
      "componentType": 5126,
      "count": 132,
      "max": [
        1.0,
        0.7565625309944153,
        0.9988318085670471,
        1.0
      ],
      "min": [
        -0.3885825574398041,
        -0.9794676303863525,
        -0.9994390606880188,
        1.0
      ],
      "type": "VEC4"
    },
    {
      "bufferView": 1,
      "byteOffset": 252696,
      "componentType": 5126,
      "count": 132,
      "max": [
        0.9599848985671997,
        0.9616161584854126
      ],
      "min": [
        0.0652439072728157,
        0.0773313045501709
      ],
      "type": "VEC2"
    },
    {
      "bufferView": 1,
      "byteOffset": 253752,
      "componentType": 5126,
      "count": 132,
      "max": [
        0.9599848985671997,
        0.9616161584854126
      ],
      "min": [
        0.0652439072728157,
        0.0773313045501709
      ],
      "type": "VEC2"
    },
    {
      "bufferView": 1,
      "byteOffset": 254808,
      "componentType": 5126,
      "count": 132,
      "max": [
        0.9599848985671997,
        0.9616161584854126
      ],
      "min": [
        0.0652439072728157,
        0.0773313045501709
      ],
      "type": "VEC2"
    },
    {
      "bufferView": 0,
      "byteOffset": 143976,
      "componentType": 5125,
      "count": 474,
      "type": "SCALAR"
    },
    {
      "bufferView": 2,
      "byteOffset": 255864,
      "componentType": 5126,
      "count": 362,
      "max": [
        0.16256718337535858,
        0.3868064284324646,
        0.006442129611968994
      ],
      "min": [
        -0.16256718337535858,
        -0.5048976540565491,
        -0.26277971267700195
      ],
      "type": "VEC3"
    },
    {
      "bufferView": 2,
      "byteOffset": 260208,
      "componentType": 5126,
      "count": 362,
      "max": [
        0.9999520778656006,
        0.9978131651878357,
        0.9999693036079407
      ],
      "min": [
        -0.9999520778656006,
        -0.9966060519218445,
        -0.9975399971008301
      ],
      "type": "VEC3"
    },
    {
      "bufferView": 3,
      "byteOffset": 170576,
      "componentType": 5126,
      "count": 362,
      "max": [
        0.9999939799308777,
        0.9996627569198608,
        0.9852819442749023,
        1.0
      ],
      "min": [
        -1.0,
        -0.9486984014511108,
        -0.9954503774642944,
        1.0
      ],
      "type": "VEC4"
    },
    {
      "bufferView": 1,
      "byteOffset": 255864,
      "componentType": 5126,
      "count": 362,
      "max": [
        0.4934144616127014,
        0.8827975988388062
      ],
      "min": [
        0.16396355628967285,
        0.06933847069740295
      ],
      "type": "VEC2"
    },
    {
      "bufferView": 1,
      "byteOffset": 258760,
      "componentType": 5126,
      "count": 362,
      "max": [
        0.4934144616127014,
        0.8827975988388062
      ],
      "min": [
        0.16396355628967285,
        0.06933847069740295
      ],
      "type": "VEC2"
    },
    {
      "bufferView": 1,
      "byteOffset": 261656,
      "componentType": 5126,
      "count": 362,
      "max": [
        0.4934144616127014,
        0.8827975988388062
      ],
      "min": [
        0.16396355628967285,
        0.06933847069740295
      ],
      "type": "VEC2"
    },
    {
      "bufferView": 0,
      "byteOffset": 145872,
      "componentType": 5125,
      "count": 1416,
      "type": "SCALAR"
    },
    {
      "bufferView": 2,
      "byteOffset": 264552,
      "componentType": 5126,
      "count": 1412,
      "max": [
        0.08683118224143982,
        0.15470591187477112,
        0.5033755302429199
      ],
      "min": [
        -0.08683134615421295,
        -0.1381135880947113,
        -1.4478679895401
      ],
      "type": "VEC3"
    },
    {
      "bufferView": 2,
      "byteOffset": 281496,
      "componentType": 5126,
      "count": 1412,
      "max": [
        1.0,
        1.0,
        1.0
      ],
      "min": [
        -1.0,
        -1.0,
        -1.0
      ],
      "type": "VEC3"
    },
    {
      "bufferView": 3,
      "byteOffset": 176368,
      "componentType": 5126,
      "count": 1412,
      "max": [
        1.0,
        1.0,
        1.0,
        1.0
      ],
      "min": [
        -1.0,
        -1.0,
        -1.0,
        1.0
      ],
      "type": "VEC4"
    },
    {
      "bufferView": 1,
      "byteOffset": 264552,
      "componentType": 5126,
      "count": 1412,
      "max": [
        0.9932512640953064,
        0.9869377613067627
      ],
      "min": [
        0.0014945782022550702,
        0.0014936208026483655
      ],
      "type": "VEC2"
    },
    {
      "bufferView": 1,
      "byteOffset": 275848,
      "componentType": 5126,
      "count": 1412,
      "max": [
        0.9932512640953064,
        0.9869377613067627
      ],
      "min": [
        0.0014945782022550702,
        0.0014936208026483655
      ],
      "type": "VEC2"
    },
    {
      "bufferView": 1,
      "byteOffset": 287144,
      "componentType": 5126,
      "count": 1412,
      "max": [
        0.9932512640953064,
        0.9869377613067627
      ],
      "min": [
        0.0014945782022550702,
        0.0014936208026483655
      ],
      "type": "VEC2"
    },
    {
      "bufferView": 0,
      "byteOffset": 151536,
      "componentType": 5125,
      "count": 4440,
      "type": "SCALAR"
    },
    {
      "bufferView": 2,
      "byteOffset": 298440,
      "componentType": 5126,
      "count": 398,
      "max": [
        0.08683118224143982,
        0.15470591187477112,
        0.453962504863739
      ],
      "min": [
        -0.08683134615421295,
        -0.1381135880947113,
        -1.4478679895401
      ],
      "type": "VEC3"
    },
    {
      "bufferView": 2,
      "byteOffset": 303216,
      "componentType": 5126,
      "count": 398,
      "max": [
        1.0,
        1.0,
        1.0
      ],
      "min": [
        -1.0,
        -1.0,
        -1.0
      ],
      "type": "VEC3"
    },
    {
      "bufferView": 3,
      "byteOffset": 198960,
      "componentType": 5126,
      "count": 398,
      "max": [
        1.0,
        1.0,
        1.0,
        1.0
      ],
      "min": [
        -1.0,
        -1.0,
        -1.0,
        1.0
      ],
      "type": "VEC4"
    },
    {
      "bufferView": 1,
      "byteOffset": 298440,
      "componentType": 5126,
      "count": 398,
      "max": [
        0.9932512640953064,
        0.9753705859184265
      ],
      "min": [
        0.0014945782022550702,
        0.0014936208026483655
      ],
      "type": "VEC2"
    },
    {
      "bufferView": 1,
      "byteOffset": 301624,
      "componentType": 5126,
      "count": 398,
      "max": [
        0.9932512640953064,
        0.9753705859184265
      ],
      "min": [
        0.0014945782022550702,
        0.0014936208026483655
      ],
      "type": "VEC2"
    },
    {
      "bufferView": 1,
      "byteOffset": 304808,
      "componentType": 5126,
      "count": 398,
      "max": [
        0.9932512640953064,
        0.9753705859184265
      ],
      "min": [
        0.0014945782022550702,
        0.0014936208026483655
      ],
      "type": "VEC2"
    },
    {
      "bufferView": 0,
      "byteOffset": 169296,
      "componentType": 5125,
      "count": 1020,
      "type": "SCALAR"
    },
    {
      "bufferView": 2,
      "byteOffset": 307992,
      "componentType": 5126,
      "count": 1412,
      "max": [
        0.08683118224143982,
        0.15470591187477112,
        0.5033755302429199
      ],
      "min": [
        -0.08683134615421295,
        -0.1381135880947113,
        -1.4478679895401
      ],
      "type": "VEC3"
    },
    {
      "bufferView": 2,
      "byteOffset": 324936,
      "componentType": 5126,
      "count": 1412,
      "max": [
        1.0,
        1.0,
        1.0
      ],
      "min": [
        -1.0,
        -1.0,
        -1.0
      ],
      "type": "VEC3"
    },
    {
      "bufferView": 3,
      "byteOffset": 205328,
      "componentType": 5126,
      "count": 1412,
      "max": [
        1.0,
        1.0,
        1.0,
        1.0
      ],
      "min": [
        -1.0,
        -1.0,
        -1.0,
        1.0
      ],
      "type": "VEC4"
    },
    {
      "bufferView": 1,
      "byteOffset": 307992,
      "componentType": 5126,
      "count": 1412,
      "max": [
        0.9932512640953064,
        0.9869377613067627
      ],
      "min": [
        0.0014945782022550702,
        0.0014936208026483655
      ],
      "type": "VEC2"
    },
    {
      "bufferView": 1,
      "byteOffset": 319288,
      "componentType": 5126,
      "count": 1412,
      "max": [
        0.9932512640953064,
        0.9869377613067627
      ],
      "min": [
        0.0014945782022550702,
        0.0014936208026483655
      ],
      "type": "VEC2"
    },
    {
      "bufferView": 1,
      "byteOffset": 330584,
      "componentType": 5126,
      "count": 1412,
      "max": [
        0.9932512640953064,
        0.9869377613067627
      ],
      "min": [
        0.0014945782022550702,
        0.0014936208026483655
      ],
      "type": "VEC2"
    },
    {
      "bufferView": 0,
      "byteOffset": 173376,
      "componentType": 5125,
      "count": 4440,
      "type": "SCALAR"
    },
    {
      "bufferView": 2,
      "byteOffset": 341880,
      "componentType": 5126,
      "count": 8397,
      "max": [
        0.31584978103637695,
        0.27349454164505005,
        0.2760949432849884
      ],
      "min": [
        -0.20635570585727692,
        -4.392515659332275,
        -1.270687460899353
      ],
      "type": "VEC3"
    },
    {
      "bufferView": 2,
      "byteOffset": 442644,
      "componentType": 5126,
      "count": 8397,
      "max": [
        1.0,
        1.0,
        1.0
      ],
      "min": [
        -1.0,
        -1.0,
        -1.0
      ],
      "type": "VEC3"
    },
    {
      "bufferView": 3,
      "byteOffset": 227920,
      "componentType": 5126,
      "count": 8397,
      "max": [
        1.0,
        1.0,
        1.0,
        1.0
      ],
      "min": [
        -1.0,
        -1.0,
        -1.0,
        -1.0
      ],
      "type": "VEC4"
    },
    {
      "bufferView": 1,
      "byteOffset": 341880,
      "componentType": 5126,
      "count": 8397,
      "max": [
        0.9985045194625854,
        0.9966129064559937
      ],
      "min": [
        0.0014915296342223883,
        0.001492082723416388
      ],
      "type": "VEC2"
    },
    {
      "bufferView": 1,
      "byteOffset": 409056,
      "componentType": 5126,
      "count": 8397,
      "max": [
        0.9985045194625854,
        0.9966129064559937
      ],
      "min": [
        0.0014915296342223883,
        0.001492082723416388
      ],
      "type": "VEC2"
    },
    {
      "bufferView": 1,
      "byteOffset": 476232,
      "componentType": 5126,
      "count": 8397,
      "max": [
        0.9985045194625854,
        0.9966129064559937
      ],
      "min": [
        0.0014915296342223883,
        0.001492082723416388
      ],
      "type": "VEC2"
    },
    {
      "bufferView": 0,
      "byteOffset": 191136,
      "componentType": 5125,
      "count": 29142,
      "type": "SCALAR"
    },
    {
      "bufferView": 2,
      "byteOffset": 543408,
      "componentType": 5126,
      "count": 720,
      "max": [
        0.1926654428243637,
        0.1288551390171051,
        1.7256220579147339
      ],
      "min": [
        -0.1926654428243637,
        -0.12885506451129913,
        -0.12885510921478271
      ],
      "type": "VEC3"
    },
    {
      "bufferView": 2,
      "byteOffset": 552048,
      "componentType": 5126,
      "count": 720,
      "max": [
        1.0,
        1.0,
        1.0
      ],
      "min": [
        -1.0,
        -1.0,
        -1.0
      ],
      "type": "VEC3"
    },
    {
      "bufferView": 3,
      "byteOffset": 362272,
      "componentType": 5126,
      "count": 720,
      "max": [
        1.0,
        1.0,
        1.0,
        1.0
      ],
      "min": [
        -1.0,
        -1.0,
        -1.0,
        1.0
      ],
      "type": "VEC4"
    },
    {
      "bufferView": 1,
      "byteOffset": 543408,
      "componentType": 5126,
      "count": 720,
      "max": [
        0.9916505217552185,
        0.9908755421638489
      ],
      "min": [
        0.0014999043196439743,
        0.001496860757470131
      ],
      "type": "VEC2"
    },
    {
      "bufferView": 1,
      "byteOffset": 549168,
      "componentType": 5126,
      "count": 720,
      "max": [
        0.9916505217552185,
        0.9908755421638489
      ],
      "min": [
        0.0014999043196439743,
        0.001496860757470131
      ],
      "type": "VEC2"
    },
    {
      "bufferView": 1,
      "byteOffset": 554928,
      "componentType": 5126,
      "count": 720,
      "max": [
        0.9916505217552185,
        0.9908755421638489
      ],
      "min": [
        0.0014999043196439743,
        0.001496860757470131
      ],
      "type": "VEC2"
    },
    {
      "bufferView": 0,
      "byteOffset": 307704,
      "componentType": 5125,
      "count": 2412,
      "type": "SCALAR"
    },
    {
      "bufferView": 2,
      "byteOffset": 560688,
      "componentType": 5126,
      "count": 132,
      "max": [
        0.04277659207582474,
        0.08988742530345917,
        -2.2351741790771484e-08
      ],
      "min": [
        -0.04277659207582474,
        -0.041619352996349335,
        -0.26410001516342163
      ],
      "type": "VEC3"
    },
    {
      "bufferView": 2,
      "byteOffset": 562272,
      "componentType": 5126,
      "count": 132,
      "max": [
        0.9993329048156738,
        0.9994391202926636,
        0.5765679478645325
      ],
      "min": [
        -0.9993329048156738,
        -0.9705154895782471,
        -1.0
      ],
      "type": "VEC3"
    },
    {
      "bufferView": 3,
      "byteOffset": 373792,
      "componentType": 5126,
      "count": 132,
      "max": [
        1.0,
        0.7565625309944153,
        0.9988318085670471,
        1.0
      ],
      "min": [
        -0.3885825574398041,
        -0.9794676303863525,
        -0.9994390606880188,
        1.0
      ],
      "type": "VEC4"
    },
    {
      "bufferView": 1,
      "byteOffset": 560688,
      "componentType": 5126,
      "count": 132,
      "max": [
        0.9599848985671997,
        0.9616161584854126
      ],
      "min": [
        0.0652439072728157,
        0.0773313045501709
      ],
      "type": "VEC2"
    },
    {
      "bufferView": 1,
      "byteOffset": 561744,
      "componentType": 5126,
      "count": 132,
      "max": [
        0.9599848985671997,
        0.9616161584854126
      ],
      "min": [
        0.0652439072728157,
        0.0773313045501709
      ],
      "type": "VEC2"
    },
    {
      "bufferView": 1,
      "byteOffset": 562800,
      "componentType": 5126,
      "count": 132,
      "max": [
        0.9599848985671997,
        0.9616161584854126
      ],
      "min": [
        0.0652439072728157,
        0.0773313045501709
      ],
      "type": "VEC2"
    },
    {
      "bufferView": 0,
      "byteOffset": 317352,
      "componentType": 5125,
      "count": 474,
      "type": "SCALAR"
    },
    {
      "bufferView": 2,
      "byteOffset": 563856,
      "componentType": 5126,
      "count": 362,
      "max": [
        0.16256718337535858,
        0.3868064284324646,
        0.006442129611968994
      ],
      "min": [
        -0.16256718337535858,
        -0.5048976540565491,
        -0.26277971267700195
      ],
      "type": "VEC3"
    },
    {
      "bufferView": 2,
      "byteOffset": 568200,
      "componentType": 5126,
      "count": 362,
      "max": [
        0.9999520778656006,
        0.9978131651878357,
        0.9999693036079407
      ],
      "min": [
        -0.9999520778656006,
        -0.9966060519218445,
        -0.9975399971008301
      ],
      "type": "VEC3"
    },
    {
      "bufferView": 3,
      "byteOffset": 375904,
      "componentType": 5126,
      "count": 362,
      "max": [
        0.9999939799308777,
        0.9996627569198608,
        0.9852819442749023,
        1.0
      ],
      "min": [
        -1.0,
        -0.9486984014511108,
        -0.9954503774642944,
        1.0
      ],
      "type": "VEC4"
    },
    {
      "bufferView": 1,
      "byteOffset": 563856,
      "componentType": 5126,
      "count": 362,
      "max": [
        0.4934144616127014,
        0.8827975988388062
      ],
      "min": [
        0.16396355628967285,
        0.06933847069740295
      ],
      "type": "VEC2"
    },
    {
      "bufferView": 1,
      "byteOffset": 566752,
      "componentType": 5126,
      "count": 362,
      "max": [
        0.4934144616127014,
        0.8827975988388062
      ],
      "min": [
        0.16396355628967285,
        0.06933847069740295
      ],
      "type": "VEC2"
    },
    {
      "bufferView": 1,
      "byteOffset": 569648,
      "componentType": 5126,
      "count": 362,
      "max": [
        0.4934144616127014,
        0.8827975988388062
      ],
      "min": [
        0.16396355628967285,
        0.06933847069740295
      ],
      "type": "VEC2"
    },
    {
      "bufferView": 0,
      "byteOffset": 319248,
      "componentType": 5125,
      "count": 1416,
      "type": "SCALAR"
    }
  ],
  "asset": {
    "extras": {
      "author": "barking_dogo (https://sketchfab.com/barking_dogo)",
      "license": "CC-BY-4.0 (http://creativecommons.org/licenses/by/4.0/)",
      "source": "https://sketchfab.com/3d-models/mp40-2bb4ae9ba1fe4cd0a7b09a15612e00bc",
      "title": "MP40"
    },
    "generator": "Sketchfab-15.55.0",
    "version": "2.0"
  },
  "bufferViews": [
    {
      "buffer": 0,
      "byteLength": 324912,
      "name": "floatBufferViews",
      "target": 34963
    },
    {
      "buffer": 0,
      "byteLength": 572544,
      "byteOffset": 324912,
      "byteStride": 8,
      "name": "floatBufferViews",
      "target": 34962
    },
    {
      "buffer": 0,
      "byteLength": 572544,
      "byteOffset": 897456,
      "byteStride": 12,
      "name": "floatBufferViews",
      "target": 34962
    },
    {
      "buffer": 0,
      "byteLength": 381696,
      "byteOffset": 1470000,
      "byteStride": 16,
      "name": "floatBufferViews",
      "target": 34962
    }
  ],
  "buffers": [
    {
      "byteLength": 1851696,
      "uri": "scene.bin"
    }
  ],
  "images": [
    {
      "uri": "textures/MP40_baseColor.png"
    },
    {
      "uri": "textures/MP40_metallicRoughness.png"
    },
    {
      "uri": "textures/MP40_emissive.png"
    },
    {
      "uri": "textures/MP40_normal.png"
    }
  ],
  "materials": [
    {
      "doubleSided": true,
      "emissiveFactor": [
        1.0,
        1.0,
        1.0
      ],
      "emissiveTexture": {
        "index": 2
      },
      "name": "MP40",
      "normalTexture": {
        "index": 3,
        "texCoord": 1
      },
      "pbrMetallicRoughness": {
        "baseColorTexture": {
          "index": 0
        },
        "metallicRoughnessTexture": {
          "index": 1
        }
      }
    }
  ],
  "meshes": [
    {
      "name": "Cube.006_MP40_0",
      "primitives": [
        {
          "attributes": {
            "NORMAL": 1,
            "POSITION": 0,
            "TANGENT": 2,
            "TEXCOORD_0": 3,
            "TEXCOORD_1": 4,
            "TEXCOORD_2": 5
          },
          "indices": 6,
          "material": 0,
          "mode": 4
        }
      ]
    },
    {
      "name": "Cube.007_MP40_0",
      "primitives": [
        {
          "attributes": {
            "NORMAL": 8,
            "POSITION": 7,
            "TANGENT": 9,
            "TEXCOORD_0": 10,
            "TEXCOORD_1": 11,
            "TEXCOORD_2": 12
          },
          "indices": 13,
          "material": 0,
          "mode": 4
        }
      ]
    },
    {
      "name": "Cylinder.017_MP40_0",
      "primitives": [
        {
          "attributes": {
            "NORMAL": 15,
            "POSITION": 14,
            "TANGENT": 16,
            "TEXCOORD_0": 17,
            "TEXCOORD_1": 18,
            "TEXCOORD_2": 19
          },
          "indices": 20,
          "material": 0,
          "mode": 4
        }
      ]
    },
    {
      "name": "Cube.015_MP40_0",
      "primitives": [
        {
          "attributes": {
            "NORMAL": 22,
            "POSITION": 21,
            "TANGENT": 23,
            "TEXCOORD_0": 24,
            "TEXCOORD_1": 25,
            "TEXCOORD_2": 26
          },
          "indices": 27,
          "material": 0,
          "mode": 4
        }
      ]
    },
    {
      "name": "Circle_MP40_0",
      "primitives": [
        {
          "attributes": {
            "NORMAL": 29,
            "POSITION": 28,
            "TANGENT": 30,
            "TEXCOORD_0": 31,
            "TEXCOORD_1": 32,
            "TEXCOORD_2": 33
          },
          "indices": 34,
          "material": 0,
          "mode": 4
        }
      ]
    },
    {
      "name": "Cube.001_MP40_0",
      "primitives": [
        {
          "attributes": {
            "NORMAL": 36,
            "POSITION": 35,
            "TANGENT": 37,
            "TEXCOORD_0": 38,
            "TEXCOORD_1": 39,
            "TEXCOORD_2": 40
          },
          "indices": 41,
          "material": 0,
          "mode": 4
        }
      ]
    },
    {
      "name": "Cube.002_MP40_0",
      "primitives": [
        {
          "attributes": {
            "NORMAL": 43,
            "POSITION": 42,
            "TANGENT": 44,
            "TEXCOORD_0": 45,
            "TEXCOORD_1": 46,
            "TEXCOORD_2": 47
          },
          "indices": 48,
          "material": 0,
          "mode": 4
        }
      ]
    },
    {
      "name": "Cube.003_MP40_0",
      "primitives": [
        {
          "attributes": {
            "NORMAL": 50,
            "POSITION": 49,
            "TANGENT": 51,
            "TEXCOORD_0": 52,
            "TEXCOORD_1": 53,
            "TEXCOORD_2": 54
          },
          "indices": 55,
          "material": 0,
          "mode": 4
        }
      ]
    },
    {
      "name": "Cube.004_MP40_0",
      "primitives": [
        {
          "attributes": {
            "NORMAL": 57,
            "POSITION": 56,
            "TANGENT": 58,
            "TEXCOORD_0": 59,
            "TEXCOORD_1": 60,
            "TEXCOORD_2": 61
          },
          "indices": 62,
          "material": 0,
          "mode": 4
        }
      ]
    },
    {
      "name": "Cylinder.001_MP40_0",
      "primitives": [
        {
          "attributes": {
            "NORMAL": 64,
            "POSITION": 63,
            "TANGENT": 65,
            "TEXCOORD_0": 66,
            "TEXCOORD_1": 67,
            "TEXCOORD_2": 68
          },
          "indices": 69,
          "material": 0,
          "mode": 4
        }
      ]
    },
    {
      "name": "Cube.005_MP40_0",
      "primitives": [
        {
          "attributes": {
            "NORMAL": 71,
            "POSITION": 70,
            "TANGENT": 72,
            "TEXCOORD_0": 73,
            "TEXCOORD_1": 74,
            "TEXCOORD_2": 75
          },
          "indices": 76,
          "material": 0,
          "mode": 4
        }
      ]
    },
    {
      "name": "Circle.001_MP40_0",
      "primitives": [
        {
          "attributes": {
            "NORMAL": 78,
            "POSITION": 77,
            "TANGENT": 79,
            "TEXCOORD_0": 80,
            "TEXCOORD_1": 81,
            "TEXCOORD_2": 82
          },
          "indices": 83,
          "material": 0,
          "mode": 4
        }
      ]
    }
  ],
  "nodes": [
    {
      "children": [
        1
      ],
      "matrix": [
        1.0,
        0.0,
        0.0,
        0.0,
        0.0,
        2.220446049250313e-16,
        -1.0,
        0.0,
        0.0,
        1.0,
        2.220446049250313e-16,
        0.0,
        0.0,
        0.0,
        0.0,
        1.0
      ],
      "name": "Sketchfab_model"
    },
    {
      "children": [
        2
      ],
      "matrix": [
        0.009999999776482582,
        0.0,
        0.0,
        0.0,
        0.0,
        0.0,
        0.009999999776482582,
        0.0,
        0.0,
        -0.009999999776482582,
        0.0,
        0.0,
        0.0,
        0.0,
        0.0,
        1.0
      ],
      "name": "model.fbx"
    },
    {
      "children": [
        3,
        5,
        7,
        9,
        11,
        13,
        15,
        17,
        19,
        21,
        23,
        25,
        27
      ],
      "name": "RootNode"
    },
    {
      "children": [
        4
      ],
      "matrix": [
        -55.77365740013573,
        -28.640752350002085,
        -77.90382817960958,
        0.0,
        -16.67244459504719,
        95.8107963934026,
        -23.287816805488617,
        0.0,
        81.31007793534744,
        5.4296012880206135e-06,
        -58.21229445871112,
        0.0,
        396.5538024902344,
        211.3508758544922,
        584.3687744140625,
        1.0
      ],
      "name": "Camera"
    },
    {
      "name": "Object_4"
    },
    {
      "children": [
        6
      ],
      "matrix": [
        100.0,
        0.0,
        0.0,
        0.0,
        0.0,
        -1.629206793918314e-05,
        -99.99999999999868,
        0.0,
        0.0,
        99.99999999999868,
        -1.629206793918314e-05,
        0.0,
        8.278423592855688e-06,
        38.79265213012695,
        39.71980285644531,
        1.0
      ],
      "name": "Cube.006"
    },
    {
      "mesh": 0,
      "name": "Cube.006_MP40_0"
    },
    {
      "children": [
        8
      ],
      "matrix": [
        100.0,
        0.0,
        0.0,
        0.0,
        0.0,
        -1.629206793918314e-05,
        -99.99999999999868,
        0.0,
        0.0,
        99.99999999999868,
        -1.629206793918314e-05,
        0.0,
        0.00010866982484003529,
        86.11263275146484,
        -198.95794677734375,
        1.0
      ],
      "name": "Cube.007"
    },
    {
      "mesh": 1,
      "name": "Cube.007_MP40_0"
    },
    {
      "children": [
        10
      ],
      "matrix": [
        100.0,
        0.0,
        0.0,
        0.0,
        0.0,
        -99.99999999999964,
        8.742277980456493e-06,
        0.0,
        0.0,
        -8.742277980456493e-06,
        -99.99999999999964,
        0.0,
        0.0,
        53.24195098876953,
        -201.3427734375,
        1.0
      ],
      "name": "Cylinder.017"
    },
    {
      "mesh": 2,
      "name": "Cylinder.017_MP40_0"
    },
    {
      "children": [
        12
      ],
      "matrix": [
        100.0,
        0.0,
        0.0,
        0.0,
        0.0,
        -1.629206793918314e-05,
        -99.99999999999868,
        0.0,
        0.0,
        99.99999999999868,
        -1.629206793918314e-05,
        0.0,
        0.00010877847671508789,
        42.02339172363281,
        -144.92991638183594,
        1.0
      ],
      "name": "Cube.015"
    },
    {
      "mesh": 3,
      "name": "Cube.015_MP40_0"
    },
    {
      "children": [
        14
      ],
      "matrix": [
        100.0,
        -3.523682868613002e-15,
        -2.8137371580700736e-16,
        0.0,
        3.5236824637562334e-15,
        98.73279114828306,
        15.869291924678654,
        0.0,
        -2.813753977461921e-16,
        -15.869291924678654,
        98.73279114828306,
        0.0,
        0.0,
        53.38300323486328,
        -368.9729309082031,
        1.0
      ],
      "name": "Circle"
    },
    {
      "mesh": 4,
      "name": "Circle_MP40_0"
    },
    {
      "children": [
        16
      ],
      "matrix": [
        100.0,
        0.0,
        0.0,
        0.0,
        0.0,
        -1.629206793918314e-05,
        -99.99999999999868,
        0.0,
        0.0,
        99.99999999999868,
        -1.629206793918314e-05,
        0.0,
        117.17247009277344,
        -61.20734786987305,
        48.02446365356445,
        1.0
      ],
      "name": "Cube.001"
    },
    {
      "mesh": 5,
      "name": "Cube.001_MP40_0"
    },
    {
      "children": [
        18
      ],
      "matrix": [
        100.0,
        0.0,
        0.0,
        0.0,
        0.0,
        -1.629206793918314e-05,
        -99.99999999999868,
        0.0,
        0.0,
        99.99999999999868,
        -1.629206793918314e-05,
        0.0,
        117.17247009277344,
        -61.20734786987305,
        -51.97553634643555,
        1.0
      ],
      "name": "Cube.002"
    },
    {
      "mesh": 6,
      "name": "Cube.002_MP40_0"
    },
    {
      "children": [
        20
      ],
      "matrix": [
        100.0,
        0.0,
        0.0,
        0.0,
        -0.0,
        -1.629206793918314e-05,
        -99.99999999999868,
        0.0,
        0.0,
        99.99999999999868,
        -1.629206793918314e-05,
        0.0,
        -200.0,
        38.79265213012695,
        39.71980285644531,
        1.0
      ],
      "name": "Cube.003"
    },
    {
      "mesh": 7,
      "name": "Cube.003_MP40_0"
    },
    {
      "children": [
        22
      ],
      "matrix": [
        100.0,
        0.0,
        0.0,
        0.0,
        -0.0,
        -1.629206793918314e-05,
        -99.99999999999868,
        0.0,
        0.0,
        99.99999999999868,
        -1.629206793918314e-05,
        0.0,
        -199.9998779296875,
        86.11263275146484,
        -198.95794677734375,
        1.0
      ],
      "name": "Cube.004"
    },
    {
      "mesh": 8,
      "name": "Cube.004_MP40_0"
    },
    {
      "children": [
        24
      ],
      "matrix": [
        100.0,
        0.0,
        0.0,
        0.0,
        0.0,
        99.99999999999429,
        3.3776623808989195e-05,
        0.0,
        0.0,
        -3.3776623808989195e-05,
        99.99999999999429,
        0.0,
        -200.0,
        53.24195098876953,
        -201.3427734375,
        1.0
      ],
      "name": "Cylinder.001"
    },
    {
      "mesh": 9,
      "name": "Cylinder.001_MP40_0"
    },
    {
      "children": [
        26
      ],
      "matrix": [
        100.0,
        0.0,
        0.0,
        0.0,
        -0.0,
        -1.629206793918314e-05,
        -99.99999999999868,
        0.0,
        0.0,
        99.99999999999868,
        -1.629206793918314e-05,
        0.0,
        -199.9998779296875,
        42.02339172363281,
        -144.92991638183594,
        1.0
      ],
      "name": "Cube.005"
    },
    {
      "mesh": 10,
      "name": "Cube.005_MP40_0"
    },
    {
      "children": [
        28
      ],
      "matrix": [
        100.0,
        2.1125287081833552e-16,
        3.5285811013282943e-15,
        0.0,
        3.523682941932479e-15,
        1.9884902391030006,
        -99.98023520900496,
        0.0,
        -2.813766079086935e-16,
        99.98023520900496,
        1.9884902391030006,
        0.0,
        -200.0,
        53.10088348388672,
        -33.712623596191406,
        1.0
      ],
      "name": "Circle.001"
    },
    {
      "mesh": 11,
      "name": "Circle.001_MP40_0"
    }
  ],
  "samplers": [
    {
      "magFilter": 9729,
      "minFilter": 9987,
      "wrapS": 10497,
      "wrapT": 10497
    }
  ],
  "scene": 0,
  "scenes": [
    {
      "name": "Sketchfab_Scene",
      "nodes": [
        0
      ]
    }
  ],
  "textures": [
    {
      "sampler": 0,
      "source": 0
    },
    {
      "sampler": 0,
      "source": 1
    },
    {
      "sampler": 0,
      "source": 2
    },
    {
      "sampler": 0,
      "source": 3
    }
  ]
}
